<svg width="13" height="14" viewBox="0 0 13 14" fill="none" xmlns="http://www.w3.org/2000/svg">
<g clip-path="url(#clip0_250_1749)">
<path d="M6.5 0.5C2.91092 0.5 0 3.41037 0 7C0 9.87192 1.86225 12.3083 4.44546 13.168C4.76992 13.2281 4.875 13.0266 4.875 12.8554V11.6453C3.06692 12.0386 2.69046 10.8783 2.69046 10.8783C2.39471 10.127 1.96842 9.92717 1.96842 9.92717C1.37854 9.52362 2.01338 9.53229 2.01338 9.53229C2.66608 9.57779 3.0095 10.2023 3.0095 10.2023C3.58908 11.1957 4.52996 10.9087 4.901 10.7424C4.95896 10.3226 5.12742 10.0355 5.31375 9.87354C3.87021 9.70833 2.35246 9.15096 2.35246 6.66092C2.35246 5.95079 2.6065 5.37121 3.02196 4.91621C2.95479 4.75208 2.73217 4.09071 3.08533 3.19587C3.08533 3.19587 3.63133 3.02146 4.87338 3.86212C5.39175 3.71804 5.9475 3.646 6.5 3.64329C7.0525 3.646 7.60879 3.71804 8.12825 3.86212C9.36921 3.02146 9.91413 3.19587 9.91413 3.19587C10.2678 4.09125 10.0452 4.75262 9.97804 4.91621C10.3951 5.37121 10.647 5.95133 10.647 6.66092C10.647 9.15746 9.12654 9.70725 7.67921 9.86812C7.91213 10.0696 8.125 10.465 8.125 11.0717V12.8554C8.125 13.0282 8.229 13.2313 8.55888 13.1674C11.1399 12.3067 13 9.87083 13 7C13 3.41037 10.0896 0.5 6.5 0.5Z" fill="#160F26"/>
</g>
<defs>
<clipPath id="clip0_250_1749">
<rect width="13" height="13" fill="white" transform="translate(0 0.5)"/>
</clipPath>
</defs>
</svg>
