<svg width="16" height="16" viewBox="0 0 16 16" fill="none" xmlns="http://www.w3.org/2000/svg">
<path d="M12.6667 2C13.0203 2 13.3594 2.14048 13.6095 2.39052C13.8595 2.64057 14 2.97971 14 3.33333V12.6667C14 13.0203 13.8595 13.3594 13.6095 13.6095C13.3594 13.8595 13.0203 14 12.6667 14H3.33333C2.97971 14 2.64057 13.8595 2.39052 13.6095C2.14048 13.3594 2 13.0203 2 12.6667V3.33333C2 2.97971 2.14048 2.64057 2.39052 2.39052C2.64057 2.14048 2.97971 2 3.33333 2H12.6667ZM12.3333 12.3333V8.8C12.3333 8.2236 12.1044 7.6708 11.6968 7.26322C11.2892 6.85564 10.7364 6.62667 10.16 6.62667C9.59333 6.62667 8.93333 6.97333 8.61333 7.49333V6.75333H6.75333V12.3333H8.61333V9.04667C8.61333 8.53333 9.02667 8.11333 9.54 8.11333C9.78754 8.11333 10.0249 8.21167 10.2 8.3867C10.375 8.56173 10.4733 8.79913 10.4733 9.04667V12.3333H12.3333ZM4.58667 5.70667C4.88371 5.70667 5.16859 5.58867 5.37863 5.37863C5.58867 5.16859 5.70667 4.88371 5.70667 4.58667C5.70667 3.96667 5.20667 3.46 4.58667 3.46C4.28786 3.46 4.00128 3.5787 3.78999 3.78999C3.5787 4.00128 3.46 4.28786 3.46 4.58667C3.46 5.20667 3.96667 5.70667 4.58667 5.70667ZM5.51333 12.3333V6.75333H3.66667V12.3333H5.51333Z" fill="#160F26"/>
</svg>
