<svg width="122" height="24" viewBox="0 0 122 24" fill="none" xmlns="http://www.w3.org/2000/svg">
<g clip-path="url(#clip0_101_705)">
<g clip-path="url(#clip1_101_705)">
<path d="M20.7908 12.4251L20.8243 12.4386L20.8577 12.452L20.8893 12.4674L20.9209 12.4846L20.9515 12.5019L20.9821 12.5211L21.0108 12.5432L21.0385 12.5643L21.0643 12.5883L21.0911 12.6123L21.116 12.6392L21.1389 12.6651L21.1619 12.6939L21.182 12.7227L21.202 12.7534L21.2193 12.7832L21.2355 12.8158L21.2508 12.8475L21.2642 12.8801L21.2776 12.9137L21.2872 12.9483L21.2967 12.9819L21.3034 13.0183L21.3101 13.0529L21.3139 13.0894L21.3159 13.1239L21.3168 13.1595L21.3159 13.1959L21.3139 13.2315L21.3101 13.267L21.3034 13.3025L21.2967 13.337L21.2872 13.3726L21.2776 13.4062L21.2642 13.4407L21.2508 13.4734L21.2355 13.505L21.2193 13.5367L21.202 13.5674L21.182 13.5981L21.1619 13.6269L21.1389 13.6538L21.116 13.6817L21.0911 13.7066L21.0643 13.7325L21.0385 13.7565L21.0108 13.7776L20.9821 13.7978L20.9515 13.8189L20.9209 13.8362L20.8893 13.8535L20.8577 13.8679L20.8243 13.8823L20.7908 13.8938L20.7573 13.9053L20.7229 13.913L20.6885 13.9216L20.6521 13.9264L20.6177 13.9303L20.5813 13.9341H20.5756L20.6119 13.9332L20.677 13.9303L20.742 13.9264L20.807 13.9207L20.8711 13.912L20.9362 13.9024L21.0002 13.8919L21.0643 13.8784L21.1274 13.864L21.1915 13.8477L21.2546 13.8295L21.3168 13.8093L21.378 13.7882L21.4392 13.7652L21.4995 13.7402L21.5597 13.7143L21.619 13.6865L21.6774 13.6567L21.7348 13.626L21.7912 13.5933L21.8466 13.5588L21.9021 13.5242L21.9557 13.4877L22.0092 13.4484L22.0609 13.4081L22.1116 13.3678L22.1613 13.3246L22.2101 13.2804L22.2569 13.2362L22.3038 13.1892L22.3488 13.1422L22.3918 13.0932L22.4339 13.0433L22.475 12.9924L22.5152 12.9396L22.5534 12.8868L22.5898 12.8331L22.6261 12.7774L22.6596 12.7217L22.6921 12.6641L22.7237 12.6065L22.7524 12.5489L22.7801 12.4894L22.8059 12.429L22.8308 12.3685L22.8537 12.307L22.8757 12.2446L22.8949 12.1823L22.913 12.1189L22.9293 12.0555L22.9436 11.9922L22.957 11.9269L22.9685 11.8626L22.9781 11.7983L22.9848 11.733L22.9915 11.6677L22.9962 11.6015L22.9981 11.5362L22.9991 11.471L22.9981 11.4057L22.9962 11.3394L22.9915 11.2742L22.9848 11.2089L22.9781 11.1446L22.9685 11.0793L22.957 11.014L22.9436 10.9507L22.9293 10.8864L22.9169 10.8374H20.5919L20.546 10.8384H15.0467L20.7506 12.4136L20.7908 12.4251Z" fill="#160F26"/>
<path d="M24.3974 12.9965L24.3926 12.914L24.3869 12.8324L24.3792 12.7498L24.3697 12.6682L24.3592 12.5876L24.3458 12.506L24.3305 12.4254L24.3152 12.3447L24.297 12.2651L24.2769 12.1854L24.2559 12.1057L24.232 12.027L24.2071 11.9492L24.1813 11.8705L24.1526 11.7937L24.1229 11.7179L24.0914 11.6411L24.0588 11.5662L24.0244 11.4914L23.989 11.4174L23.9508 11.3454L23.9116 11.2725L23.8704 11.2015L23.8284 11.1304L23.7853 11.0613L23.7394 10.9922L23.6935 10.925L23.6457 10.8588L23.6294 10.8376H22.9169L22.9293 10.8866L22.9437 10.9509L22.9571 11.0143L22.9686 11.0795L22.9781 11.1448L22.9848 11.2091L22.9915 11.2744L22.9963 11.3397L22.9982 11.4059L22.9992 11.4712L22.9982 11.5365L22.9963 11.6017L22.9915 11.668L22.9848 11.7333L22.9781 11.7985L22.9686 11.8628L22.9571 11.9272L22.9437 11.9924L22.9293 12.0558L22.9131 12.1191L22.8949 12.1825L22.8758 12.2449L22.8538 12.3073L22.8308 12.3687L22.806 12.4292L22.7801 12.4897L22.7524 12.5492L22.7237 12.6068L22.6922 12.6644L22.6596 12.722L22.6262 12.7777L22.5898 12.8333L22.5535 12.8871L22.5152 12.9399L22.4751 12.9927L22.4339 13.0436L22.3918 13.0935L22.3488 13.1424L22.3039 13.1895L22.257 13.2365L22.2101 13.2807L22.1614 13.3248L22.1116 13.368L22.0609 13.4083L22.0093 13.4486L21.9557 13.488L21.9022 13.5245L21.8467 13.559L21.7912 13.5936L21.7348 13.6262L21.6774 13.6569L21.6191 13.6867L21.5598 13.7145L21.4995 13.7405L21.4393 13.7654L21.3781 13.7884L21.3169 13.8096L21.2547 13.8297L21.1916 13.848L21.1275 13.8643L21.0644 13.8787L21.0003 13.8921L20.9362 13.9027L20.8712 13.9123L20.8071 13.9209L20.7421 13.9267L20.677 13.9305L20.612 13.9334L20.546 13.9344H0.5V17.0311H20.546L20.6283 17.0301L20.7096 17.0282L20.7918 17.0234L20.8731 17.0167L20.9544 17.009L21.0357 17.0004L21.117 16.9879L21.1973 16.9754L21.2777 16.961L21.358 16.9437L21.4383 16.9255L21.5168 16.9063L21.5961 16.8842L21.6755 16.8612L21.753 16.8372L21.8304 16.8093L21.907 16.7815L21.9835 16.7517L22.059 16.721L22.1336 16.6884L22.2082 16.6529L22.2819 16.6164L22.3545 16.5789L22.4263 16.5396L22.4971 16.4993L22.5678 16.4561L22.6357 16.4129L22.7046 16.3678L22.7725 16.3207L22.8385 16.2727L22.9035 16.2228L22.9676 16.1719L23.0317 16.1191L23.0938 16.0654L23.1541 16.0116L23.2134 15.955L23.2717 15.8974L23.3291 15.8388L23.3846 15.7784L23.4401 15.7179L23.4936 15.6555L23.5453 15.5921L23.596 15.5278L23.6457 15.4616L23.6935 15.3954L23.7394 15.3282L23.7853 15.2591L23.8284 15.1899L23.8704 15.1189L23.9116 15.0479L23.9508 14.9759L23.989 14.9029L24.0244 14.829L24.0588 14.7551L24.0914 14.6793L24.1229 14.6034L24.1526 14.5276L24.1813 14.4498L24.2071 14.3721L24.232 14.2943L24.2559 14.2147L24.2769 14.1359L24.297 14.0563L24.3152 13.9756L24.3305 13.896L24.3458 13.8153L24.3592 13.7337L24.3697 13.6521L24.3792 13.5705L24.3869 13.489L24.3926 13.4064L24.3974 13.3248L24.4003 13.2432L24.4012 13.1607L24.4003 13.0781L24.3974 12.9965Z" fill="#FA6863"/>
<path d="M4.11035 11.572L4.07688 11.5595L4.0434 11.5461L4.01184 11.5307L3.97933 11.5134L3.94968 11.4952L3.91907 11.476L3.89038 11.4549L3.86265 11.4328L3.83587 11.4088L3.81004 11.3848L3.78518 11.3589L3.76222 11.332L3.73927 11.3032L3.71919 11.2744L3.6991 11.2447L3.68189 11.2149L3.66563 11.1823L3.64937 11.1496L3.63694 11.118L3.62355 11.0844L3.61398 11.0488L3.60442 11.0152L3.59677 10.9797L3.59103 10.9452L3.5872 10.9087L3.58529 10.8741L3.58433 10.8377L3.58529 10.8021L3.5872 10.7657L3.59103 10.7311L3.59677 10.6956L3.60442 10.6601L3.61398 10.6255L3.62355 10.5919L3.63694 10.5574L3.64937 10.5247L3.66563 10.4921L3.68189 10.4614L3.6991 10.4297L3.71919 10.3999L3.73927 10.3711L3.76222 10.3433L3.78518 10.3164L3.81004 10.2905L3.83587 10.2655L3.86265 10.2416L3.89038 10.2204L3.91907 10.1993L3.94968 10.1792L3.97933 10.1609L4.01184 10.1446L4.0434 10.1302L4.07688 10.1158L4.11035 10.1033L4.14383 10.0928L4.17826 10.0841L4.21269 10.0764L4.24903 10.0716L4.28346 10.0678L4.31885 10.064H4.32554H4.2892L4.22416 10.0668L4.15913 10.0716L4.09409 10.0774L4.03001 10.0851L3.96498 10.0947L3.89994 10.1062L3.83682 10.1187L3.77274 10.134L3.70962 10.1504L3.6465 10.1686L3.58433 10.1888L3.52313 10.2099L3.46096 10.232L3.40166 10.2569L3.34141 10.2838L3.28211 10.3116L3.22377 10.3414L3.16543 10.3721L3.10996 10.4038L3.05449 10.4383L2.99902 10.4739L2.94451 10.5103L2.89191 10.5497L2.8393 10.589L2.78957 10.6303L2.73984 10.6726L2.69106 10.7167L2.6442 10.7618L2.59734 10.8079L2.55239 10.8559L2.50935 10.9039L2.46631 10.9538L2.42614 11.0056L2.38502 11.0575L2.34772 11.1103L2.31042 11.165L2.27503 11.2197L2.24156 11.2763L2.20904 11.333L2.17748 11.3915L2.14879 11.4491L2.12105 11.5086L2.09523 11.5691L2.07036 11.6296L2.04741 11.691L2.02541 11.7534L2.00629 11.8158L1.98811 11.8792L1.97186 11.9416L1.95751 12.0059L1.94412 12.0702L1.93264 12.1355L1.92308 12.1998L1.91638 12.2651L1.90969 12.3294L1.90491 12.3956L1.90299 12.4609L1.90204 12.5262L1.90299 12.5924L1.90491 12.6577L1.90969 12.723L1.91638 12.7882L1.92308 12.8535L1.93264 12.9188L1.94412 12.9831L1.95751 13.0474L1.97186 13.1108L1.98429 13.1607H4.30928L4.35519 13.1597H9.85445L4.15052 11.5845L4.11035 11.572Z" fill="#160F26"/>
<path d="M0.503826 11.0016L0.507651 11.0842L0.514346 11.1657L0.521997 11.2473L0.531561 11.3289L0.542081 11.4105L0.555471 11.4912L0.569817 11.5728L0.586075 11.6534L0.604247 11.7331L0.624331 11.8127L0.645372 11.8924L0.669282 11.9711L0.694148 12.0489L0.719971 12.1266L0.748662 12.2044L0.778311 12.2802L0.809872 12.357L0.842389 12.4319L0.876819 12.5068L0.912206 12.5797L0.950461 12.6527L0.989674 12.7256L1.0308 12.7967L1.07288 12.8667L1.11592 12.9358L1.16087 13.005L1.20773 13.0731L1.25555 13.1393L1.27181 13.1605H1.98432L1.97189 13.1105L1.95754 13.0472L1.94415 12.9829L1.93268 12.9186L1.92311 12.8533L1.91642 12.788L1.90972 12.7227L1.90494 12.6575L1.90303 12.5922L1.90207 12.526L1.90303 12.4607L1.90494 12.3954L1.90972 12.3292L1.91642 12.2649L1.92311 12.1996L1.93268 12.1353L1.94415 12.07L1.95754 12.0057L1.97189 11.9414L1.98815 11.879L2.00632 11.8156L2.02545 11.7532L2.04744 11.6908L2.0704 11.6294L2.09526 11.5689L2.12109 11.5084L2.14882 11.4489L2.17751 11.3913L2.20908 11.3328L2.24159 11.2761L2.27507 11.2195L2.31045 11.1648L2.34775 11.1101L2.38505 11.0573L2.42618 11.0054L2.46635 10.9536L2.50938 10.9037L2.55242 10.8557L2.59737 10.8077L2.64423 10.7616L2.6911 10.7165L2.73987 10.6723L2.78961 10.6301L2.83934 10.5888L2.89194 10.5495L2.94454 10.5101L2.99906 10.4736L3.05453 10.4381L3.11 10.4036L3.16547 10.3719L3.22381 10.3412L3.28215 10.3114L3.34145 10.2836L3.4017 10.2567L3.46099 10.2317L3.52316 10.2097L3.58437 10.1885L3.64654 10.1684L3.70966 10.1501L3.77278 10.1338L3.83686 10.1185L3.89998 10.106L3.96501 10.0945L4.03005 10.0849L4.09413 10.0772L4.15916 10.0714L4.2242 10.0666L4.28923 10.0638L4.35522 10.0628H24.4012V6.96704H4.35522L4.27297 6.968L4.19168 6.96992L4.10943 6.97472L4.02814 6.98048L3.94589 6.98816L3.86555 6.99776L3.78426 7.00928L3.70392 7.02176L3.62358 7.03712L3.54229 7.05343L3.46291 7.07167L3.38353 7.09183L3.3051 7.11295L3.22572 7.13695L3.14825 7.16095L3.07079 7.18782L2.99427 7.21566L2.91776 7.24638L2.84221 7.2771L2.76761 7.30973L2.69301 7.34525L2.61937 7.38173L2.54668 7.4182L2.47495 7.45852L2.40418 7.49884L2.33341 7.54107L2.26455 7.58523L2.19569 7.63035L2.12874 7.67738L2.06275 7.72538L1.99676 7.77434L1.93363 7.82521L1.86956 7.87801L1.80739 7.93176L1.74714 7.98648L1.68784 8.04311L1.6295 8.09975L1.57212 8.15927L1.51569 8.21974L1.46118 8.28022L1.40762 8.34261L1.35597 8.40597L1.30528 8.47028L1.25555 8.53556L1.20773 8.60275L1.16087 8.66994L1.11592 8.7381L1.07288 8.80817L1.0308 8.87921L0.989674 8.95024L0.950461 9.02128L0.912206 9.09423L0.876819 9.1691L0.842389 9.24302L0.809872 9.31885L0.778311 9.39373L0.748662 9.47052L0.719971 9.54731L0.694148 9.62507L0.669282 9.70378L0.645372 9.7825L0.624331 9.86217L0.604247 9.94184L0.586075 10.0225L0.569817 10.1021L0.555471 10.1828L0.542081 10.2644L0.531561 10.346L0.521997 10.4276L0.514346 10.5092L0.507651 10.5908L0.503826 10.6723L0.5 10.7549V10.8375V10.92L0.503826 11.0016Z" fill="#F18046"/>
<path d="M4.11035 4.60568L4.07688 4.59224L4.0434 4.57784L4.01089 4.56344L3.98028 4.54616L3.94872 4.52889L3.91907 4.50969L3.89038 4.48761L3.86169 4.46649L3.83491 4.44249L3.80909 4.41849L3.78518 4.39162L3.76222 4.3657L3.73927 4.3369L3.71823 4.3081L3.6991 4.27739L3.68093 4.24667L3.66467 4.21499L3.64841 4.18331L3.63598 4.15068L3.62355 4.11612L3.61303 4.08252L3.60442 4.04892L3.59677 4.01245L3.59103 3.97789L3.58625 3.94141L3.58529 3.90589L3.58433 3.86942L3.58529 3.8339L3.58625 3.79934L3.59103 3.76383L3.59677 3.72831L3.60442 3.69375L3.61303 3.65823L3.62355 3.62368L3.63598 3.59008L3.64841 3.55744L3.66467 3.52577L3.68093 3.49313L3.6991 3.46337L3.71823 3.43265L3.73927 3.40386L3.76222 3.37698L3.78518 3.34914L3.80909 3.32226L3.83491 3.29826L3.86169 3.27427L3.89038 3.25315L3.91907 3.23299L3.94872 3.21187L3.98028 3.19459L4.01089 3.17731L4.0434 3.16195L4.07688 3.14852L4.11035 3.137L4.14383 3.12548L4.17826 3.11588L4.21364 3.10916L4.24807 3.1034L4.28346 3.09956L4.3198 3.09668H4.33128H4.2892L4.22416 3.09956L4.15913 3.10436L4.09409 3.11012L4.03001 3.11876L3.96498 3.12836L3.89994 3.13892L3.83682 3.15236L3.77274 3.16675L3.70962 3.18307L3.6465 3.20131L3.58433 3.22147L3.52313 3.24259L3.46096 3.26563L3.40166 3.28962L3.34141 3.3165L3.28211 3.34434L3.22377 3.3741L3.16543 3.40482L3.10996 3.43649L3.05354 3.47105L2.99902 3.50657L2.94451 3.54304L2.89191 3.5824L2.8393 3.62176L2.78862 3.66303L2.73984 3.70623L2.69106 3.74943L2.64324 3.79454L2.59734 3.84062L2.55239 3.88862L2.50935 3.93757L2.46631 3.98749L2.42614 4.03836L2.38502 4.09116L2.34772 4.14396L2.31042 4.19771L2.27503 4.25243L2.24156 4.30906L2.20904 4.3657L2.17748 4.42425L2.14879 4.48185L2.12105 4.54136L2.09523 4.60184L2.07036 4.66231L2.04741 4.72375L2.02541 4.78614L2.00629 4.84854L1.98811 4.91189L1.97186 4.97525L1.95655 5.0386L1.94412 5.10292L1.93264 5.16819L1.92308 5.23251L1.91543 5.29778L1.90969 5.3621L1.90491 5.42833L1.90299 5.49457L1.90204 5.55984L1.90299 5.62512L1.90491 5.69135L1.90969 5.75663L1.91543 5.8219L1.92308 5.88622L1.93264 5.95149L1.94412 6.01677L1.95655 6.08012L1.97186 6.14444L1.98811 6.20779L2.00629 6.27019L2.02541 6.33354L2.04741 6.39498L2.07036 6.45641L2.09523 6.51689L2.12105 6.57736L2.14879 6.63688L2.17748 6.69543L2.19661 6.72903L2.19852 6.72807L2.27886 6.68679L2.35919 6.64744L2.44049 6.60904L2.52274 6.57352L2.60499 6.53704L2.68915 6.50441L2.77236 6.47369L2.85748 6.44201L2.94259 6.41513L3.02867 6.38826L3.11475 6.3633L3.20082 6.3393L3.28785 6.31722L3.37584 6.29802L3.46383 6.28074L3.55086 6.26347L3.63981 6.24907L3.72875 6.23563L3.81769 6.22411L3.9076 6.21451L3.99654 6.20683L4.08644 6.20011L4.17443 6.19627L4.26624 6.19435L4.35519 6.19243H9.85445L4.14956 4.6172L4.11035 4.60568Z" fill="#160F26"/>
<path d="M20.546 20.9033H20.6119L20.677 20.8995L20.742 20.8956L20.807 20.8899L20.8721 20.8812L20.9371 20.8716L21.0012 20.8611L21.0653 20.8476L21.1284 20.8332L21.1925 20.8169L21.2546 20.7987L21.3168 20.7785L21.379 20.7574L21.4402 20.7344L21.4995 20.7094L21.5597 20.6835L21.619 20.6557L21.6774 20.6259L21.7357 20.5952L21.7921 20.5625L21.8476 20.528L21.9021 20.4925L21.9566 20.456L22.0102 20.4176L22.0618 20.3773L22.1125 20.337L22.1623 20.2938L22.2101 20.2496L22.2579 20.2054L22.3038 20.1584L22.3488 20.1114L22.3928 20.0624L22.4348 20.0125L22.476 19.9616L22.5161 19.9088L22.5534 19.856L22.5907 19.8023L22.6261 19.7466L22.6596 19.6909L22.6921 19.6333L22.7237 19.5757L22.7533 19.5172L22.781 19.4586L22.8059 19.3982L22.8317 19.3367L22.8537 19.2762L22.8757 19.2138L22.8958 19.1515L22.913 19.0881L22.9302 19.0247L22.9446 18.9614L22.957 18.8961L22.9685 18.8318L22.9781 18.7675L22.9857 18.7012L22.9924 18.6369L22.9962 18.5707L22.9991 18.5054V18.4402V18.3749L22.9962 18.3086L22.9924 18.2434L22.9857 18.1781L22.9781 18.1138L22.9685 18.0485L22.957 17.9832L22.9446 17.9199L22.9302 17.8556L22.913 17.7922L22.8958 17.7298L22.8757 17.6665L22.8537 17.6041L22.8317 17.5436L22.8059 17.4831L22.781 17.4226L22.7533 17.3631L22.7237 17.3046L22.7045 17.269L22.7026 17.27L22.6223 17.3113L22.5419 17.3506L22.4607 17.389L22.3784 17.4255L22.2952 17.4601L22.212 17.4937L22.1288 17.5244L22.0437 17.5551L21.9576 17.5839L21.8725 17.6098L21.7874 17.6348L21.6994 17.6588L21.6133 17.6799L21.5253 17.7L21.4373 17.7183L21.3493 17.7346L21.2613 17.749L21.1724 17.7624L21.0834 17.774L20.9945 17.7836L20.9046 17.7912L20.8147 17.797L20.7248 17.8018L20.6359 17.8047L20.546 17.8056H15.0467L20.7506 19.3809L20.7908 19.3934L20.8243 19.4058L20.8577 19.4193L20.8893 19.4346L20.9209 19.4519L20.9515 19.4701L20.9821 19.4893L21.0108 19.5105L21.0385 19.5325L21.0643 19.5565L21.0911 19.5805L21.116 19.6065L21.1389 19.6333L21.1619 19.6621L21.182 19.6909L21.202 19.7207L21.2193 19.7504L21.2355 19.7831L21.2508 19.8157L21.2642 19.8474L21.2776 19.881L21.2872 19.9165L21.2967 19.9501L21.3034 19.9856L21.3101 20.0202L21.3139 20.0567L21.3159 20.0912L21.3168 20.1277L21.3159 20.1632L21.3139 20.1997L21.3101 20.2342L21.3034 20.2698L21.2967 20.3053L21.2872 20.3398L21.2776 20.3734L21.2642 20.408L21.2508 20.4406L21.2355 20.4733L21.2193 20.504L21.202 20.5357L21.182 20.5654L21.1619 20.5942L21.1389 20.6221L21.116 20.6489L21.0911 20.6749L21.0643 20.6998L21.0385 20.7238L21.0108 20.7449L20.9821 20.766L20.9515 20.7862L20.9209 20.8044L20.8893 20.8208L20.8577 20.8352L20.8243 20.8496L20.7908 20.862L20.7573 20.8726L20.7229 20.8812L20.6885 20.8889L20.6521 20.8937L20.6177 20.8976L20.5813 20.9014L20.546 20.9024" fill="#160F26"/>
<path d="M24.3974 19.9645L24.3936 19.8829L24.3878 19.8013L24.3792 19.7188L24.3706 19.6372L24.3592 19.5565L24.3458 19.475L24.3314 19.3943L24.3152 19.3137L24.297 19.2331L24.2769 19.1543L24.2559 19.0747L24.2329 18.995L24.208 18.9182L24.1813 18.8395L24.1526 18.7627L24.1239 18.6869L24.0923 18.6101L24.0588 18.5352L24.0254 18.4603L23.989 18.3864L23.9508 18.3144L23.9125 18.2415L23.8714 18.1704L23.8284 18.0994L23.7853 18.0303L23.7404 17.9612L23.6935 17.894L23.6457 17.8277L23.596 17.7615L23.5462 17.6981L23.4936 17.6338L23.4401 17.5724L23.3855 17.511L23.3291 17.4514L23.2727 17.3919L23.2134 17.3353L23.1541 17.2786L23.0938 17.2239L23.0317 17.1702L22.9686 17.1174L22.9647 17.1145L22.8748 17.1692L22.7954 17.2143L22.7132 17.2595L22.7027 17.2652L22.7237 17.3046L22.7534 17.3631L22.7811 17.4226L22.806 17.4831L22.8318 17.5436L22.8538 17.6041L22.8758 17.6665L22.8959 17.7298L22.9131 17.7922L22.9303 17.8556L22.9446 17.9199L22.9571 17.9832L22.9686 18.0485L22.9781 18.1138L22.9858 18.1781L22.9925 18.2434L22.9963 18.3086L22.9992 18.3749V18.4402V18.5054L22.9963 18.5707L22.9925 18.6369L22.9858 18.7013L22.9781 18.7675L22.9686 18.8318L22.9571 18.8961L22.9446 18.9614L22.9303 19.0248L22.9131 19.0881L22.8959 19.1515L22.8758 19.2139L22.8538 19.2762L22.8318 19.3367L22.806 19.3982L22.7811 19.4586L22.7534 19.5172L22.7237 19.5757L22.6922 19.6333L22.6596 19.6909L22.6262 19.7466L22.5908 19.8023L22.5535 19.856L22.5162 19.9088L22.476 19.9616L22.4349 20.0125L22.3928 20.0624L22.3488 20.1114L22.3039 20.1584L22.258 20.2055L22.2101 20.2496L22.1623 20.2938L22.1126 20.337L22.0619 20.3773L22.0103 20.4176L21.9567 20.456L21.9022 20.4925L21.8477 20.528L21.7922 20.5625L21.7358 20.5952L21.6774 20.6259L21.6191 20.6557L21.5598 20.6835L21.4995 20.7094L21.4402 20.7344L21.379 20.7574L21.3169 20.7785L21.2547 20.7987L21.1925 20.8169L21.1285 20.8332L21.0653 20.8476L21.0013 20.8611L20.9372 20.8716L20.8721 20.8812L20.8071 20.8899L20.7421 20.8956L20.677 20.8995L20.612 20.9033H20.546H0.5V24H20.546L20.6283 23.9991L20.7096 23.9972L20.7918 23.9924L20.8731 23.9856L20.9553 23.9789L21.0366 23.9693L21.1179 23.9568L21.1983 23.9444L21.2786 23.93L21.3589 23.9127L21.4383 23.8944L21.5177 23.8752L21.5961 23.8541L21.6755 23.8301L21.753 23.8061L21.8304 23.7783L21.9079 23.7505L21.9844 23.7207L22.06 23.69L22.1346 23.6573L22.2092 23.6218L22.2819 23.5853L22.3555 23.5479L22.4263 23.5086L22.498 23.4682L22.5678 23.426L22.6367 23.3809L22.7055 23.3367L22.7725 23.2897L22.8385 23.2407L22.9045 23.1918L22.9686 23.1409L23.0317 23.0881L23.0938 23.0343L23.1541 22.9806L23.2134 22.924L23.2727 22.8664L23.3291 22.8078L23.3855 22.7473L23.4401 22.6869L23.4936 22.6245L23.5462 22.5611L23.596 22.4968L23.6457 22.4315L23.6935 22.3643L23.7404 22.2971L23.7853 22.228L23.8284 22.1589L23.8714 22.0879L23.9125 22.0168L23.9508 21.9448L23.989 21.8719L24.0254 21.798L24.0588 21.7241L24.0923 21.6482L24.1239 21.5724L24.1526 21.4966L24.1813 21.4188L24.208 21.341L24.2329 21.2623L24.2559 21.1836L24.2769 21.1049L24.297 21.0243L24.3152 20.9446L24.3314 20.8649L24.3458 20.7833L24.3592 20.7027L24.3706 20.6211L24.3792 20.5395L24.3878 20.4579L24.3936 20.3754L24.3974 20.2938L24.4012 20.2122V20.1296V20.0471L24.3974 19.9645Z" fill="#3D95FD"/>
<path d="M0.503826 4.03456L0.507651 4.11711L0.51339 4.1987L0.521997 4.28126L0.531561 4.36285L0.542081 4.44348L0.555471 4.52508L0.569817 4.60571L0.586075 4.68635L0.604247 4.76602L0.624331 4.84569L0.645372 4.92441L0.668325 5.00408L0.694148 5.08183L0.719971 5.15959L0.748662 5.23734L0.777354 5.31317L0.808915 5.38997L0.842389 5.46484L0.876819 5.53972L0.912206 5.61267L0.950461 5.68563L0.989674 5.75858L1.02984 5.82961L1.07288 5.90065L1.11592 5.9688L1.16087 6.03792L1.20773 6.10607L1.25555 6.17231L1.30528 6.23854L1.35597 6.3019L1.40762 6.36621L1.46118 6.42765L1.51569 6.48908L1.57212 6.5486L1.6295 6.60715L1.68784 6.66475L1.74714 6.72138L1.80739 6.7761L1.86956 6.82985L1.93363 6.88169L1.9365 6.88457L2.0264 6.83081L2.10579 6.7857L2.18803 6.73962L2.19951 6.73482L2.17751 6.69546L2.14882 6.63691L2.12109 6.57739L2.09526 6.51692L2.0704 6.45644L2.04744 6.39501L2.02545 6.33357L2.00632 6.27022L1.98815 6.20782L1.97189 6.14447L1.95659 6.08015L1.94415 6.0168L1.93268 5.95152L1.92311 5.88625L1.91546 5.82193L1.90972 5.75666L1.90494 5.69138L1.90303 5.62515L1.90207 5.55988L1.90303 5.4946L1.90494 5.42837L1.90972 5.36213L1.91546 5.29782L1.92311 5.23254L1.93268 5.16823L1.94415 5.10295L1.95659 5.03864L1.97189 4.97528L1.98815 4.91193L2.00632 4.84857L2.02545 4.78618L2.04744 4.72378L2.0704 4.66235L2.09526 4.60187L2.12109 4.5414L2.14882 4.48188L2.17751 4.42429L2.20908 4.36573L2.24159 4.3091L2.27507 4.25246L2.31045 4.19774L2.34775 4.14399L2.38505 4.09119L2.42618 4.0384L2.46635 3.98752L2.50938 3.9376L2.55242 3.88865L2.59737 3.84065L2.64328 3.79458L2.6911 3.74946L2.73987 3.70626L2.78865 3.66307L2.83934 3.62179L2.89194 3.58243L2.94454 3.54308L2.99906 3.5066L3.05357 3.47108L3.11 3.43652L3.16547 3.40485L3.22381 3.37413L3.28215 3.34437L3.34145 3.31653L3.4017 3.28966L3.46099 3.26566L3.52316 3.24262L3.58437 3.2215L3.64654 3.20134L3.70966 3.18311L3.77278 3.16679L3.83686 3.15239L3.89998 3.13895L3.96501 3.12839L4.03005 3.11879L4.09413 3.11015L4.15916 3.10439L4.2242 3.09959L4.28923 3.09671H4.35522H24.4012V0H4.35522H4.27297L4.19168 0.00287977L4.10943 0.00767939L4.02814 0.0143988L3.94589 0.0211183L3.86459 0.0307175L3.78426 0.0431965L3.70296 0.0547156L3.62263 0.0700744L3.54229 0.0863931L3.46291 0.105592L3.38353 0.12479L3.3051 0.145908L3.22572 0.169906L3.14825 0.193904L3.07079 0.220782L2.99427 0.24862L2.91681 0.279338L2.84221 0.310055L2.76761 0.342693L2.69301 0.37821L2.61937 0.413727L2.54668 0.452124L2.47495 0.491481L2.40418 0.531797L2.33341 0.574034L2.26455 0.618191L2.19569 0.663307L2.12874 0.710343L2.06275 0.758339L1.99676 0.808255L1.93363 0.859131L1.86956 0.911927L1.80739 0.964723L1.74714 1.01944L1.68784 1.07607L1.6295 1.13367L1.57212 1.19222L1.51569 1.25174L1.46118 1.31317L1.40762 1.37557L1.35597 1.43892L1.30528 1.50324L1.25555 1.56851L1.20773 1.63571L1.16087 1.7029L1.11592 1.77106L1.07288 1.84113L1.02984 1.91121L0.989674 1.9832L0.950461 2.0552L0.912206 2.12719L0.876819 2.20206L0.842389 2.27598L0.808915 2.35181L0.777354 2.42765L0.748662 2.50348L0.719971 2.58027L0.694148 2.65899L0.668325 2.73674L0.645372 2.81545L0.624331 2.89513L0.604247 2.9748L0.586075 3.05544L0.569817 3.13511L0.555471 3.21574L0.542081 3.29734L0.531561 3.37893L0.521997 3.46052L0.51339 3.54212L0.507651 3.62467L0.503826 3.70626L0.5 3.78786V3.87041V3.95296L0.503826 4.03456Z" fill="#0DC09D"/>
</g>
<path d="M38.0029 19.475H31.8713V17.0531H38.0029C38.9522 17.0531 39.6835 16.8688 40.1969 16.4983C40.7102 16.1287 40.9674 15.6516 40.9674 15.068C40.9674 14.4844 40.7246 14.0562 40.2409 13.7836C39.7562 13.5119 39.0392 13.2873 38.0899 13.1126L37.1014 12.9379C36.1321 12.7632 35.2507 12.5098 34.4572 12.1796C33.6628 11.8494 33.0328 11.3915 32.5682 10.8078C32.1036 10.2242 31.8704 9.47547 31.8704 8.56067C31.8704 7.19949 32.3742 6.14358 33.3818 5.39484C34.3893 4.6461 35.7258 4.27173 37.3921 4.27173H43.3784V6.72337H37.3921C36.5785 6.72337 35.939 6.87408 35.4744 7.1755C35.0098 7.47691 34.7765 7.90024 34.7765 8.44451C34.7765 9.02815 35.004 9.45627 35.4591 9.72889C35.9141 10.0015 36.5298 10.206 37.3041 10.3413L38.3213 10.516C39.348 10.6907 40.2877 10.9346 41.1404 11.2456C41.9932 11.5566 42.6662 12.0039 43.1604 12.5875C43.6546 13.1712 43.9013 13.9497 43.9013 14.9221C43.9013 16.362 43.3678 17.4803 42.3029 18.278C41.237 19.0757 39.804 19.474 38.002 19.474L38.0029 19.475Z" fill="#160F26"/>
<path d="M75.1415 23.9021V17.1116H74.6769C74.4637 17.5014 74.154 17.8757 73.7468 18.2347C73.3395 18.5947 72.8214 18.8913 72.1923 19.1246C71.5624 19.3578 70.7832 19.475 69.8531 19.475C68.6514 19.475 67.5473 19.1831 66.5397 18.5995C65.5321 18.0159 64.7281 17.175 64.1278 16.0749C63.5274 14.9758 63.2272 13.6482 63.2272 12.0912V11.6535C63.2272 10.0975 63.5322 8.7699 64.1431 7.66982C64.753 6.57071 65.5617 5.72886 66.5693 5.14523C67.5769 4.56159 68.6715 4.26978 69.8531 4.26978C71.2478 4.26978 72.3185 4.5232 73.0642 5.02811C73.8099 5.53399 74.3672 6.10803 74.7352 6.75022H75.1998V4.26978H78.1356V23.9002H75.1425L75.1415 23.9021ZM70.6953 16.8486C72.0126 16.8486 73.0881 16.4301 73.9207 15.594C74.7534 14.7579 75.1702 13.5609 75.1702 12.0048V11.7418C75.1702 10.205 74.7486 9.01852 73.9064 8.18146C73.0632 7.34537 71.9926 6.92684 70.6953 6.92684C69.398 6.92684 68.356 7.34537 67.5129 8.18146C66.6697 9.01852 66.2491 10.205 66.2491 11.7418V12.0048C66.2491 13.5618 66.6707 14.7579 67.5129 15.594C68.356 16.431 69.4162 16.8486 70.6953 16.8486Z" fill="#160F26"/>
<path d="M60.3584 11.5662C60.3584 10.1071 60.0677 8.83327 59.4865 7.74375C58.9053 6.65424 58.0956 5.80279 57.0603 5.19036C56.023 4.57793 54.8166 4.27075 53.4419 4.27075C52.0672 4.27075 50.7872 4.58177 49.7222 5.20476C49.1888 5.51577 48.7137 5.88726 48.2949 6.32115C48.2424 6.3749 48.1907 6.43058 48.1391 6.48625C47.9862 6.6552 47.8437 6.83183 47.708 7.01613C47.5283 7.26283 47.361 7.52489 47.208 7.80231C46.5981 8.91102 46.2922 10.2146 46.2922 11.713V12.0634C46.2922 13.5618 46.5971 14.8645 47.208 15.9741C47.8179 17.0828 48.6659 17.9439 49.7509 18.5563C50.835 19.1688 52.1045 19.4759 53.5576 19.4759C54.8367 19.4759 55.9016 19.2715 56.7543 18.8635C57.6071 18.4546 58.2849 17.9487 58.7887 17.3459C58.9282 17.1779 59.0602 17.0128 59.1835 16.8496C59.5047 16.4263 59.7704 16.0183 59.9798 15.6238L57.4809 14.3394C57.1711 15.0017 56.7295 15.5854 56.1588 16.0903C55.5861 16.5962 54.7392 16.8486 53.6159 16.8486C52.4142 16.8486 51.4114 16.4733 50.6084 15.7255C50.5587 15.6785 50.5099 15.6324 50.4631 15.5825C50.4153 15.5326 50.3704 15.4836 50.3254 15.4337C50.2184 15.3099 50.1189 15.1803 50.0272 15.044C49.6362 14.4546 49.4125 13.7529 49.3561 12.9398C49.3503 12.8621 49.3475 12.7834 49.3446 12.7046H60.3593V11.5662H60.3584ZM51.3493 10.3989L49.8188 11.9357H49.315C49.3073 11.4932 49.315 10.9249 49.3733 10.3989C49.402 10.1992 49.4402 10.0063 49.4899 9.82103C49.5377 9.63576 49.596 9.45914 49.6639 9.29019C49.8895 8.72672 50.225 8.24963 50.6667 7.8599C51.3732 7.23691 52.288 6.9259 53.4132 6.9259C54.5384 6.9259 55.4475 7.23691 56.1454 7.8599C56.8432 8.48289 57.24 9.32955 57.3365 10.3989H51.3502H51.3493Z" fill="#160F26"/>
<path d="M95.0688 11.5662C95.0688 10.1071 94.7781 8.83327 94.1969 7.74375C93.6157 6.65424 92.806 5.80279 91.7706 5.19036C90.7334 4.57793 89.527 4.27075 88.1523 4.27075C86.7776 4.27075 85.4975 4.58177 84.4326 5.20476C83.8992 5.51577 83.424 5.88726 83.0053 6.32115C82.9527 6.3749 82.9011 6.43058 82.8495 6.48625C82.6965 6.6552 82.5541 6.83183 82.4184 7.01613C82.2386 7.26283 82.0713 7.52489 81.9184 7.80231C81.3085 8.91102 81.0026 10.2146 81.0026 11.713V12.0634C81.0026 13.5618 81.3075 14.8645 81.9184 15.9741C82.5283 17.0828 83.3762 17.9439 84.4613 18.5563C85.5453 19.1688 86.8149 19.4759 88.268 19.4759C89.547 19.4759 90.612 19.2715 91.4647 18.8635C92.3175 18.4546 92.9952 17.9487 93.499 17.3459C93.6386 17.1779 93.7705 17.0128 93.8939 16.8496C94.2151 16.4263 94.4808 16.0183 94.6902 15.6238L92.1913 14.3394C91.8815 15.0017 91.4399 15.5854 90.8692 16.0903C90.2965 16.5962 89.4495 16.8486 88.3263 16.8486C87.1246 16.8486 86.1218 16.4733 85.3188 15.7255C85.2691 15.6785 85.2203 15.6324 85.1735 15.5825C85.1257 15.5326 85.0807 15.4836 85.0358 15.4337C84.9287 15.3099 84.8293 15.1803 84.7376 15.044C84.3466 14.4546 84.1229 13.7529 84.0665 12.9398C84.0607 12.8621 84.0579 12.7834 84.055 12.7046H95.0697V11.5662H95.0688ZM86.0597 10.3989L84.5291 11.9357H84.0253C84.0177 11.4932 84.0253 10.9249 84.0837 10.3989C84.1123 10.1992 84.1506 10.0063 84.2003 9.82103C84.2481 9.63576 84.3064 9.45914 84.3743 9.29019C84.5999 8.72672 84.9354 8.24963 85.3771 7.8599C86.0836 7.23691 86.9984 6.9259 88.1236 6.9259C89.2488 6.9259 90.1579 7.23691 90.8558 7.8599C91.5536 8.48289 91.9504 9.32955 92.0469 10.3989H86.0606H86.0597Z" fill="#160F26"/>
<path d="M97.9367 19.4749V4.27071H100.872V5.96306H101.336C101.568 5.36023 101.941 4.9177 102.455 4.63548C102.968 4.35327 103.603 4.21216 104.358 4.21216H106.073V6.92586H104.242C103.273 6.92586 102.479 7.19368 101.859 7.72836C101.239 8.26399 100.929 9.08569 100.929 10.1944V19.474H97.9357L97.9367 19.4749Z" fill="#160F26"/>
<path d="M120.512 9.72309C120.512 7.96451 119.978 6.60622 118.907 5.64918C117.837 4.69214 116.368 4.21313 114.499 4.21313C113.273 4.21313 112.237 4.408 111.39 4.79965C110.544 5.1913 109.862 5.7087 109.347 6.3528C108.832 6.99787 108.457 7.7015 108.223 8.46272L111.025 9.37176C111.2 8.59038 111.56 7.95492 112.105 7.46631C112.651 6.97867 113.438 6.73389 114.469 6.73389C115.501 6.73389 116.299 6.99307 116.805 7.51047C117.311 8.02787 117.564 8.6979 117.564 9.51863V12.0183H117.078L115.521 10.4565H113.185C111.609 10.4565 110.3 10.8328 109.259 11.5853C108.218 12.337 107.697 13.4466 107.697 14.9124C107.697 15.8896 107.936 16.719 108.412 17.4034C108.889 18.0879 109.532 18.6053 110.338 18.9566C111.147 19.3079 112.067 19.4846 113.096 19.4846C114.126 19.4846 114.887 19.3425 115.49 19.0593C116.093 18.7761 116.551 18.444 116.862 18.0629C117.175 17.6818 117.406 17.3343 117.563 17.0224H118.03V19.4846H120.511V9.72405L120.512 9.72309ZM117.564 13.0934C117.564 14.3058 117.189 15.258 116.44 15.9511C115.69 16.6441 114.724 16.9916 113.535 16.9916C112.66 16.9916 111.969 16.7968 111.463 16.4051C110.956 16.0135 110.704 15.4865 110.704 14.8222C110.704 14.1579 110.947 13.654 111.433 13.3132C111.921 12.9715 112.561 12.8006 113.359 12.8006H117.563V13.0934H117.564Z" fill="#160F26"/>
</g>
<defs>
<clipPath id="clip0_101_705">
<rect width="121" height="24" fill="white" transform="translate(0.5)"/>
</clipPath>
<clipPath id="clip1_101_705">
<rect width="23.9012" height="24" fill="white" transform="translate(0.5)"/>
</clipPath>
</defs>
</svg>
