<svg width="32" height="32" viewBox="0 0 32 32" fill="none" xmlns="http://www.w3.org/2000/svg">
<g id="ICON">
<path id="Vector" d="M27.1662 16.567L27.211 16.5849L27.2558 16.6029L27.2981 16.6233L27.3404 16.6464L27.3813 16.6694L27.4223 16.695L27.4607 16.7245L27.4979 16.7526L27.5324 16.7846L27.5683 16.8166L27.6016 16.8524L27.6323 16.887L27.663 16.9254L27.6899 16.9638L27.7168 17.0047L27.7399 17.0444L27.7616 17.0879L27.7821 17.1302L27.8 17.1737L27.818 17.2185L27.8308 17.2646L27.8436 17.3094L27.8525 17.358L27.8615 17.4041L27.8666 17.4527L27.8692 17.4988L27.8705 17.5461L27.8692 17.5948L27.8666 17.6421L27.8615 17.6895L27.8525 17.7369L27.8436 17.7829L27.8308 17.8303L27.818 17.8751L27.8 17.9212L27.7821 17.9647L27.7616 18.0069L27.7399 18.0491L27.7168 18.0901L27.6899 18.1311L27.663 18.1695L27.6323 18.2053L27.6016 18.2424L27.5683 18.2757L27.5324 18.3102L27.4979 18.3422L27.4607 18.3704L27.4223 18.3973L27.3813 18.4254L27.3404 18.4485L27.2981 18.4715L27.2558 18.4907L27.211 18.5099L27.1662 18.5253L27.1214 18.5406L27.0753 18.5509L27.0292 18.5624L26.9806 18.5688L26.9345 18.5739L26.8858 18.579H26.8781L26.9268 18.5777L27.0138 18.5739L27.1009 18.5688L27.188 18.5611L27.2738 18.5496L27.3608 18.5368L27.4466 18.5227L27.5324 18.5048L27.6169 18.4856L27.7027 18.4638L27.7872 18.4395L27.8705 18.4126L27.9524 18.3845L28.0344 18.3538L28.115 18.3205L28.1957 18.2859L28.2751 18.2488L28.3532 18.2091L28.43 18.1682L28.5056 18.1247L28.5798 18.0786L28.6541 18.0325L28.7258 17.9839L28.7975 17.9314L28.8667 17.8776L28.9345 17.8239L29.0011 17.7663L29.0664 17.7074L29.1292 17.6485L29.1919 17.5858L29.2521 17.5231L29.3097 17.4578L29.366 17.3913L29.4211 17.3234L29.4749 17.2531L29.5261 17.1827L29.5748 17.111L29.6234 17.0367L29.6682 16.9625L29.7118 16.8857L29.754 16.8089L29.7924 16.7321L29.8296 16.6528L29.8641 16.5721L29.8974 16.4915L29.9282 16.4096L29.9576 16.3264L29.9832 16.2432L30.0076 16.1587L30.0293 16.0743L30.0485 15.9898L30.0665 15.9028L30.0818 15.817L30.0946 15.7313L30.1036 15.6442L30.1126 15.5572L30.119 15.4689L30.1215 15.3818L30.1228 15.2948L30.1215 15.2078L30.119 15.1195L30.1126 15.0324L30.1036 14.9454L30.0946 14.8596L30.0818 14.7726L30.0665 14.6856L30.0485 14.6011L30.0293 14.5153L30.0127 14.4501H26.8999L26.8384 14.4514H19.4758L27.1124 16.5517L27.1662 16.567Z" fill="#160F26"/>
<path id="Vector_2" d="M31.9949 17.3286L31.9885 17.2185L31.9808 17.1097L31.9705 16.9996L31.9577 16.8908L31.9437 16.7833L31.9257 16.6745L31.9052 16.567L31.8848 16.4595L31.8604 16.3533L31.8335 16.247L31.8054 16.1408L31.7734 16.0359L31.7401 15.9322L31.7055 15.8272L31.6671 15.7249L31.6274 15.6237L31.5851 15.5213L31.5416 15.4215L31.4955 15.3217L31.4481 15.2231L31.3969 15.1271L31.3444 15.0299L31.2893 14.9352L31.233 14.8404L31.1754 14.7483L31.1139 14.6561L31.0525 14.5665L30.9884 14.4782L30.9667 14.4501H30.0127L30.0294 14.5153L30.0486 14.6011L30.0665 14.6856L30.0819 14.7726L30.0947 14.8596L30.1036 14.9454L30.1126 15.0324L30.119 15.1195L30.1216 15.2078L30.1228 15.2948L30.1216 15.3818L30.119 15.4689L30.1126 15.5572L30.1036 15.6442L30.0947 15.7313L30.0819 15.817L30.0665 15.9028L30.0486 15.9898L30.0294 16.0743L30.0076 16.1587L29.9833 16.2432L29.9577 16.3264L29.9282 16.4096L29.8975 16.4915L29.8642 16.5721L29.8296 16.6528L29.7925 16.7321L29.7541 16.8089L29.7118 16.8857L29.6683 16.9625L29.6235 17.0367L29.5748 17.111L29.5261 17.1827L29.4749 17.253L29.4212 17.3234L29.3661 17.3913L29.3097 17.4578L29.2521 17.5231L29.1919 17.5858L29.1292 17.6485L29.0665 17.7074L29.0012 17.7663L28.9346 17.8239L28.8667 17.8776L28.7976 17.9314L28.7259 17.9839L28.6542 18.0325L28.5799 18.0786L28.5056 18.1247L28.4301 18.1682L28.3532 18.2091L28.2751 18.2488L28.1957 18.2859L28.1151 18.3205L28.0344 18.3538L27.9525 18.3845L27.8705 18.4126L27.7873 18.4395L27.7028 18.4638L27.617 18.4856L27.5325 18.5048L27.4467 18.5227L27.3609 18.5368L27.2738 18.5496L27.188 18.5611L27.101 18.5688L27.0139 18.5739L26.9268 18.5777L26.8385 18.579H0V22.708H26.8385L26.9486 22.7067L27.0574 22.7041L27.1675 22.6977L27.2764 22.6888L27.3852 22.6785L27.4941 22.667L27.6029 22.6504L27.7105 22.6337L27.818 22.6145L27.9256 22.5915L28.0331 22.5672L28.1381 22.5416L28.2444 22.5121L28.3507 22.4814L28.4544 22.4494L28.5581 22.4123L28.6606 22.3752L28.763 22.3355L28.8642 22.2946L28.964 22.2511L29.0639 22.2037L29.1625 22.1551L29.2598 22.1051L29.3558 22.0527L29.4506 21.9989L29.5454 21.9413L29.6363 21.8837L29.7285 21.8236L29.8194 21.7608L29.9077 21.6969L29.9948 21.6303L30.0806 21.5625L30.1664 21.4921L30.2496 21.4204L30.3303 21.3487L30.4097 21.2732L30.4878 21.1964L30.5646 21.1183L30.6389 21.0377L30.7131 20.9571L30.7848 20.8739L30.854 20.7894L30.9219 20.7037L30.9884 20.6153L31.0525 20.527L31.1139 20.4374L31.1754 20.3453L31.233 20.2531L31.2893 20.1584L31.3444 20.0637L31.3969 19.9677L31.4481 19.8704L31.4955 19.7719L31.5416 19.6733L31.5851 19.5722L31.6274 19.4711L31.6671 19.37L31.7055 19.2663L31.7401 19.1627L31.7734 19.059L31.8054 18.9528L31.8335 18.8478L31.8604 18.7416L31.8848 18.6341L31.9052 18.5278L31.9257 18.4203L31.9437 18.3115L31.9577 18.2027L31.9705 18.0939L31.9808 17.9852L31.9885 17.8751L31.9949 17.7663L31.9987 17.6575L32 17.5474L31.9987 17.4374L31.9949 17.3286Z" fill="#FA6863"/>
<path id="Vector_3" d="M4.83372 15.4292L4.7889 15.4125L4.74409 15.3946L4.70183 15.3741L4.6583 15.3511L4.6186 15.3268L4.57763 15.3012L4.53921 15.273L4.50208 15.2436L4.46623 15.2116L4.43166 15.1796L4.39836 15.145L4.36763 15.1092L4.3369 15.0708L4.31001 15.0324L4.28312 14.9927L4.26007 14.9531L4.23831 14.9095L4.21654 14.866L4.19989 14.8238L4.18197 14.779L4.16916 14.7316L4.15636 14.6868L4.14611 14.6395L4.13843 14.5934L4.13331 14.5448L4.13075 14.4987L4.12947 14.4501L4.13075 14.4027L4.13331 14.3541L4.13843 14.308L4.14611 14.2606L4.15636 14.2133L4.16916 14.1672L4.18197 14.1224L4.19989 14.0763L4.21654 14.0328L4.23831 13.9893L4.26007 13.9483L4.28312 13.9061L4.31001 13.8664L4.3369 13.828L4.36763 13.7909L4.39836 13.7551L4.43166 13.7205L4.46623 13.6872L4.50208 13.6552L4.53921 13.6271L4.57763 13.5989L4.6186 13.572L4.6583 13.5477L4.70183 13.526L4.74409 13.5068L4.7889 13.4876L4.83372 13.4709L4.87854 13.4569L4.92463 13.4453L4.97073 13.4351L5.01939 13.4287L5.06548 13.4236L5.11286 13.4185H5.12182H5.07317L4.9861 13.4223L4.89902 13.4287L4.81195 13.4364L4.72616 13.4466L4.63909 13.4594L4.55202 13.4748L4.46751 13.4914L4.38172 13.5119L4.29721 13.5336L4.2127 13.558L4.12947 13.5848L4.04752 13.613L3.96429 13.6424L3.8849 13.6757L3.80423 13.7116L3.72484 13.7487L3.64673 13.7883L3.56863 13.8293L3.49436 13.8715L3.42009 13.9176L3.34582 13.965L3.27284 14.0136L3.20241 14.0661L3.13199 14.1186L3.0654 14.1736L2.99882 14.2299L2.93352 14.2888L2.87077 14.3489L2.80803 14.4104L2.74785 14.4744L2.69023 14.5384L2.63261 14.6049L2.57883 14.674L2.52377 14.7432L2.47383 14.8135L2.42389 14.8865L2.37652 14.9595L2.3317 15.035L2.28816 15.1105L2.24591 15.1886L2.2075 15.2653L2.17036 15.3447L2.13579 15.4253L2.1025 15.506L2.07177 15.5879L2.04232 15.6711L2.01671 15.7543L1.99238 15.8387L1.97061 15.9219L1.9514 16.0077L1.93348 16.0934L1.91811 16.1805L1.90531 16.2662L1.89634 16.3533L1.88738 16.439L1.88098 16.5273L1.87842 16.6144L1.87714 16.7014L1.87842 16.7897L1.88098 16.8767L1.88738 16.9638L1.89634 17.0508L1.90531 17.1378L1.91811 17.2249L1.93348 17.3106L1.9514 17.3964L1.97061 17.4809L1.98726 17.5474H5.10006L5.16152 17.5461H12.5242L4.8875 15.4458L4.83372 15.4292Z" fill="#160F26"/>
<path id="Vector_4" d="M0.00512184 14.669L0.0102437 14.779L0.0192069 14.8878L0.0294506 14.9966L0.0422552 15.1054L0.0563403 15.2142L0.0742667 15.3217L0.0934737 15.4305L0.115241 15.538L0.13957 15.6442L0.16646 15.7505L0.19463 15.8567L0.226642 15.9617L0.259934 16.0653L0.294506 16.169L0.33292 16.2727L0.372614 16.3738L0.414869 16.4762L0.458405 16.576L0.504502 16.6758L0.551879 16.7731L0.603097 16.8704L0.655596 16.9677L0.710656 17.0624L0.766996 17.1558L0.824617 17.248L0.884799 17.3401L0.947541 17.431L1.01156 17.5193L1.03333 17.5475H1.98728L1.97063 17.4809L1.95142 17.3964L1.9335 17.3107L1.91813 17.2249L1.90533 17.1379L1.89636 17.0508L1.8874 16.9638L1.881 16.8768L1.87844 16.7897L1.87716 16.7014L1.87844 16.6144L1.881 16.5274L1.8874 16.4391L1.89636 16.3533L1.90533 16.2663L1.91813 16.1805L1.9335 16.0935L1.95142 16.0077L1.97063 15.922L1.9924 15.8388L2.01673 15.7543L2.04234 15.6711L2.07179 15.5879L2.10252 15.506L2.13581 15.4254L2.17038 15.3447L2.20751 15.2654L2.24593 15.1886L2.28818 15.1105L2.33172 15.035L2.37654 14.9595L2.42391 14.8865L2.47385 14.8136L2.52379 14.7432L2.57885 14.6741L2.63263 14.605L2.69025 14.5384L2.74787 14.4744L2.80805 14.4104L2.87079 14.349L2.93354 14.2888L2.99884 14.23L3.06542 14.1736L3.13201 14.1186L3.20243 14.0661L3.27286 14.0137L3.34584 13.965L3.42011 13.9177L3.49438 13.8716L3.56864 13.8293L3.64675 13.7884L3.72486 13.7487L3.80425 13.7116L3.88492 13.6758L3.96431 13.6425L4.04754 13.613L4.12949 13.5849L4.21272 13.558L4.29723 13.5337L4.38174 13.5119L4.46753 13.4915L4.55204 13.4748L4.63911 13.4595L4.72618 13.4467L4.81197 13.4364L4.89904 13.4287L4.98611 13.4223L5.07319 13.4185L5.16154 13.4172H32V9.28955H5.16154L5.05142 9.29083L4.94258 9.29339L4.83246 9.29979L4.72362 9.30747L4.6135 9.31771L4.50594 9.33051L4.3971 9.34587L4.28954 9.3625L4.18199 9.38298L4.07315 9.40474L3.96687 9.42906L3.86059 9.45594L3.75559 9.48409L3.64931 9.51609L3.5456 9.54809L3.44188 9.58393L3.33944 9.62104L3.23701 9.662L3.13585 9.70296L3.03597 9.74647L2.9361 9.79383L2.8375 9.84247L2.74019 9.8911L2.64415 9.94486L2.5494 9.99861L2.45464 10.0549L2.36245 10.1138L2.27026 10.174L2.18063 10.2367L2.09227 10.3007L2.00392 10.3659L1.91941 10.4338L1.83362 10.5042L1.75039 10.5758L1.66972 10.6488L1.59033 10.7243L1.51222 10.7998L1.4354 10.8792L1.35985 10.9598L1.28686 11.0405L1.21516 11.1236L1.14601 11.2081L1.07815 11.2939L1.01156 11.3809L0.947541 11.4705L0.884799 11.5601L0.824617 11.651L0.766996 11.7444L0.710656 11.8391L0.655596 11.9338L0.603097 12.0285L0.551879 12.1258L0.504502 12.2256L0.458405 12.3242L0.414869 12.4253L0.372614 12.5251L0.33292 12.6275L0.294506 12.7299L0.259934 12.8336L0.226642 12.9385L0.19463 13.0435L0.16646 13.1497L0.13957 13.256L0.115241 13.3635L0.0934737 13.4697L0.0742667 13.5772L0.0563403 13.686L0.0422552 13.7948L0.0294506 13.9036L0.0192069 14.0124L0.0102437 14.1212L0.00512184 14.23L0 14.34V14.4501V14.5602L0.00512184 14.669Z" fill="#F18046"/>
<path id="Vector_5" d="M4.83372 6.14091L4.7889 6.12299L4.74409 6.10379L4.70055 6.08459L4.65958 6.06155L4.61732 6.03851L4.57763 6.01292L4.53921 5.98348L4.5008 5.95532L4.46495 5.92332L4.43038 5.89132L4.39836 5.85549L4.36763 5.82093L4.3369 5.78253L4.30873 5.74414L4.28312 5.70318L4.25879 5.66222L4.23703 5.61999L4.21526 5.57775L4.19861 5.53423L4.18197 5.48816L4.16788 5.44336L4.15636 5.39856L4.14611 5.34993L4.13843 5.30385L4.13203 5.25522L4.13075 5.20786L4.12947 5.15922L4.13075 5.11187L4.13203 5.06579L4.13843 5.01844L4.14611 4.97108L4.15636 4.925L4.16788 4.87765L4.18197 4.83157L4.19861 4.78677L4.21526 4.74326L4.23703 4.70102L4.25879 4.6575L4.28312 4.61783L4.30873 4.57687L4.3369 4.53847L4.36763 4.50264L4.39836 4.46552L4.43038 4.42968L4.46495 4.39768L4.5008 4.36569L4.53921 4.33753L4.57763 4.31065L4.61732 4.28249L4.65958 4.25946L4.70055 4.23642L4.74409 4.21594L4.7889 4.19802L4.83372 4.18266L4.87854 4.1673L4.92463 4.1545L4.97201 4.14555L5.01811 4.13787L5.06548 4.13275L5.11414 4.12891H5.12951H5.07317L4.9861 4.13275L4.89902 4.13915L4.81195 4.14683L4.72616 4.15834L4.63909 4.17114L4.55202 4.18522L4.46751 4.20314L4.38172 4.22234L4.29721 4.2441L4.2127 4.26842L4.12947 4.29529L4.04752 4.32345L3.96429 4.35417L3.8849 4.38617L3.80423 4.422L3.72484 4.45912L3.64673 4.4988L3.56863 4.53975L3.49436 4.58199L3.41881 4.62807L3.34582 4.67542L3.27284 4.72406L3.20241 4.77653L3.13199 4.82901L3.06412 4.88405L2.99882 4.94164L2.93352 4.99924L2.86949 5.05939L2.80803 5.12083L2.74785 5.18482L2.69023 5.2501L2.63261 5.31665L2.57883 5.38449L2.52377 5.45488L2.47383 5.52527L2.42389 5.59695L2.37652 5.6699L2.3317 5.74542L2.28816 5.82093L2.24591 5.899L2.2075 5.9758L2.17036 6.05515L2.13579 6.13579L2.1025 6.21642L2.07177 6.29833L2.04232 6.38153L2.01671 6.46472L1.99238 6.54919L1.97061 6.63367L1.95012 6.71814L1.93348 6.80389L1.91811 6.89093L1.90531 6.97668L1.89506 7.06371L1.88738 7.14946L1.88098 7.23778L1.87842 7.32609L1.87714 7.41312L1.87842 7.50016L1.88098 7.58847L1.88738 7.6755L1.89506 7.76254L1.90531 7.84829L1.91811 7.93532L1.93348 8.02235L1.95012 8.10683L1.97061 8.19258L1.99238 8.27705L2.01671 8.36025L2.04232 8.44472L2.07177 8.52663L2.1025 8.60855L2.13579 8.68918L2.17036 8.76981L2.2075 8.84917L2.24591 8.92724L2.27152 8.97204L2.27408 8.97076L2.38164 8.91572L2.4892 8.86325L2.59804 8.81205L2.70816 8.7647L2.81828 8.71606L2.93096 8.67254L3.04236 8.63159L3.15632 8.58935L3.27028 8.55351L3.38552 8.51767L3.50076 8.4844L3.616 8.4524L3.73252 8.42296L3.85033 8.39736L3.96813 8.37433L4.08465 8.35129L4.20373 8.33209L4.32282 8.31417L4.4419 8.29881L4.56226 8.28601L4.68135 8.27577L4.80171 8.26681L4.91951 8.2617L5.04244 8.25914L5.16152 8.25658H12.5242L4.88622 6.15626L4.83372 6.14091Z" fill="#160F26"/>
<path id="Vector_6" d="M26.8384 27.8711H26.9268L27.0138 27.866L27.1009 27.8608L27.188 27.8532L27.2751 27.8416L27.3621 27.8288L27.4479 27.8148L27.5337 27.7968L27.6182 27.7777L27.704 27.7559L27.7872 27.7316L27.8705 27.7047L27.9537 27.6765L28.0356 27.6458L28.115 27.6125L28.1957 27.578L28.2751 27.5409L28.3532 27.5012L28.4313 27.4602L28.5069 27.4167L28.5811 27.3706L28.6541 27.3233L28.7271 27.2747L28.7988 27.2235L28.8679 27.1697L28.9358 27.1159L29.0024 27.0583L29.0664 26.9995L29.1304 26.9406L29.1919 26.8779L29.2521 26.8152L29.311 26.7499L29.3673 26.6833L29.4224 26.6155L29.4762 26.5451L29.5261 26.4747L29.576 26.403L29.6234 26.3288L29.6682 26.2546L29.7118 26.1778L29.754 26.101L29.7937 26.0229L29.8309 25.9448L29.8641 25.8642L29.8987 25.7823L29.9282 25.7017L29.9576 25.6185L29.9845 25.5353L30.0076 25.4508L30.0306 25.3663L30.0498 25.2819L30.0665 25.1948L30.0818 25.1091L30.0946 25.0233L30.1049 24.935L30.1138 24.8492L30.119 24.7609L30.1228 24.6739V24.5869V24.4998L30.119 24.4115L30.1138 24.3245L30.1049 24.2375L30.0946 24.1517L30.0818 24.0647L30.0665 23.9776L30.0498 23.8932L30.0306 23.8074L30.0076 23.7229L29.9845 23.6397L29.9576 23.5553L29.9282 23.4721L29.8987 23.3914L29.8641 23.3108L29.8309 23.2302L29.7937 23.1508L29.754 23.0727L29.7284 23.0254L29.7259 23.0267L29.6183 23.0817L29.5107 23.1342L29.4019 23.1854L29.2918 23.234L29.1804 23.2801L29.069 23.3249L28.9576 23.3658L28.8436 23.4068L28.7284 23.4452L28.6144 23.4798L28.5005 23.513L28.3827 23.545L28.2674 23.5732L28.1496 23.6001L28.0318 23.6244L27.914 23.6461L27.7962 23.6653L27.6771 23.6833L27.558 23.6986L27.439 23.7114L27.3186 23.7217L27.1982 23.7293L27.0779 23.7357L26.9588 23.7396L26.8384 23.7409H19.4758L27.1124 25.8412L27.1662 25.8578L27.211 25.8744L27.2558 25.8924L27.2981 25.9128L27.3404 25.9359L27.3813 25.9602L27.4223 25.9858L27.4607 26.014L27.4979 26.0434L27.5324 26.0754L27.5683 26.1074L27.6016 26.1419L27.6323 26.1778L27.663 26.2162L27.6899 26.2546L27.7168 26.2942L27.7399 26.3339L27.7616 26.3774L27.7821 26.421L27.8 26.4632L27.818 26.508L27.8308 26.5553L27.8436 26.6001L27.8525 26.6475L27.8615 26.6936L27.8666 26.7422L27.8692 26.7883L27.8705 26.8369L27.8692 26.8843L27.8666 26.9329L27.8615 26.979L27.8525 27.0264L27.8436 27.0737L27.8308 27.1198L27.818 27.1646L27.8 27.2107L27.7821 27.2542L27.7616 27.2977L27.7399 27.3386L27.7168 27.3809L27.6899 27.4206L27.663 27.459L27.6323 27.4961L27.6016 27.5319L27.5683 27.5665L27.5324 27.5997L27.4979 27.6317L27.4607 27.6599L27.4223 27.6881L27.3813 27.7149L27.3404 27.7393L27.2981 27.761L27.2558 27.7802L27.211 27.7994L27.1662 27.816L27.1214 27.8301L27.0753 27.8416L27.0292 27.8519L26.9806 27.8583L26.9345 27.8634L26.8858 27.8685L26.8384 27.8698" fill="#160F26"/>
<path id="Vector_7" d="M31.9949 26.6194L31.9898 26.5106L31.9821 26.4018L31.9705 26.2917L31.959 26.1829L31.9437 26.0754L31.9257 25.9666L31.9065 25.8591L31.8848 25.7516L31.8604 25.6441L31.8335 25.5391L31.8054 25.4329L31.7746 25.3267L31.7413 25.2243L31.7055 25.1193L31.6671 25.0169L31.6287 24.9158L31.5864 24.8134L31.5416 24.7136L31.4968 24.6138L31.4481 24.5152L31.3969 24.4192L31.3457 24.3219L31.2906 24.2272L31.233 24.1325L31.1754 24.0404L31.1152 23.9482L31.0525 23.8586L30.9884 23.7703L30.9219 23.682L30.8553 23.5975L30.7848 23.5118L30.7131 23.4298L30.6402 23.3479L30.5646 23.2686L30.4891 23.1892L30.4097 23.1137L30.3303 23.0382L30.2496 22.9652L30.1664 22.8936L30.0819 22.8232L30.0767 22.8193L29.9564 22.8923L29.8501 22.9524L29.74 23.0126L29.7259 23.0203L29.7541 23.0728L29.7938 23.1508L29.8309 23.2302L29.8642 23.3108L29.8988 23.3915L29.9282 23.4721L29.9577 23.5553L29.9846 23.6398L30.0076 23.7229L30.0307 23.8074L30.0499 23.8932L30.0665 23.9776L30.0819 24.0647L30.0947 24.1517L30.1049 24.2375L30.1139 24.3245L30.119 24.4115L30.1228 24.4998V24.5869V24.6739L30.119 24.7609L30.1139 24.8493L30.1049 24.935L30.0947 25.0233L30.0819 25.1091L30.0665 25.1948L30.0499 25.2819L30.0307 25.3663L30.0076 25.4508L29.9846 25.5353L29.9577 25.6185L29.9282 25.7017L29.8988 25.7823L29.8642 25.8642L29.8309 25.9448L29.7938 26.0229L29.7541 26.101L29.7118 26.1778L29.6683 26.2546L29.6235 26.3288L29.5761 26.403L29.5261 26.4747L29.4762 26.5451L29.4224 26.6155L29.3674 26.6833L29.311 26.7499L29.2521 26.8152L29.1919 26.8779L29.1305 26.9406L29.0665 26.9995L29.0024 27.0584L28.9359 27.116L28.868 27.1697L28.7988 27.2235L28.7271 27.2747L28.6542 27.3233L28.5812 27.3707L28.5069 27.4167L28.4314 27.4602L28.3532 27.5012L28.2751 27.5409L28.1957 27.578L28.1151 27.6126L28.0357 27.6458L27.9537 27.6765L27.8705 27.7047L27.7873 27.7316L27.7041 27.7559L27.6183 27.7777L27.5338 27.7969L27.448 27.8148L27.3622 27.8289L27.2751 27.8417L27.188 27.8532L27.101 27.8609L27.0139 27.866L26.9268 27.8711H26.8385H0V32H26.8385L26.9486 31.9988L27.0574 31.9962L27.1675 31.9898L27.2764 31.9808L27.3865 31.9719L27.4953 31.9591L27.6042 31.9424L27.7117 31.9258L27.8193 31.9066L27.9269 31.8836L28.0331 31.8593L28.1394 31.8337L28.2444 31.8055L28.3507 31.7735L28.4544 31.7415L28.5581 31.7044L28.6618 31.6673L28.7643 31.6276L28.8654 31.5866L28.9653 31.5431L29.0652 31.4958L29.1625 31.4471L29.2611 31.3972L29.3558 31.3447L29.4519 31.291L29.5454 31.2347L29.6376 31.1745L29.7297 31.1156L29.8194 31.0529L29.9077 30.9876L29.9961 30.9224L30.0819 30.8545L30.1664 30.7841L30.2496 30.7125L30.3303 30.6408L30.4097 30.5653L30.4891 30.4885L30.5646 30.4104L30.6402 30.3298L30.7131 30.2491L30.7848 30.1659L30.8553 30.0815L30.9219 29.9957L30.9884 29.9087L31.0525 29.8191L31.1152 29.7295L31.1754 29.6374L31.233 29.5452L31.2906 29.4505L31.3457 29.3558L31.3969 29.2598L31.4481 29.1625L31.4968 29.064L31.5416 28.9654L31.5864 28.8643L31.6287 28.7632L31.6671 28.6621L31.7055 28.5584L31.7413 28.4547L31.7746 28.3498L31.8054 28.2448L31.8335 28.1399L31.8604 28.0324L31.8848 27.9261L31.9065 27.8199L31.9257 27.7111L31.9437 27.6036L31.959 27.4948L31.9705 27.386L31.9821 27.2772L31.9898 27.1671L31.9949 27.0584L32 26.9496V26.8395V26.7294L31.9949 26.6194Z" fill="#3D95FD"/>
<path id="Vector_8" d="M0.00512184 5.37941L0.0102437 5.48948L0.0179265 5.59827L0.0294506 5.70834L0.0422552 5.81713L0.0563403 5.92465L0.0742667 6.03344L0.0934737 6.14095L0.115241 6.24846L0.13957 6.35469L0.16646 6.46092L0.19463 6.56587L0.225361 6.67211L0.259934 6.77578L0.294506 6.87945L0.33292 6.98312L0.371334 7.08423L0.413589 7.18663L0.458405 7.28646L0.504502 7.38629L0.551879 7.48356L0.603097 7.58083L0.655596 7.67811L0.709375 7.77282L0.766996 7.86753L0.824617 7.9584L0.884799 8.05056L0.947541 8.14143L1.01156 8.22974L1.07815 8.31805L1.14601 8.40253L1.21516 8.48828L1.28686 8.57019L1.35985 8.65211L1.4354 8.73146L1.51222 8.80954L1.59033 8.88633L1.66972 8.96184L1.75039 9.0348L1.83362 9.10647L1.91941 9.17559L1.92325 9.17943L2.04362 9.10775L2.14989 9.0476L2.26001 8.98616L2.27538 8.97976L2.24593 8.92729L2.20751 8.84921L2.17038 8.76986L2.13581 8.68922L2.10252 8.60859L2.07179 8.52668L2.04234 8.44476L2.01673 8.36029L1.9924 8.2771L1.97063 8.19262L1.95014 8.10687L1.9335 8.0224L1.91813 7.93536L1.90533 7.84833L1.89508 7.76258L1.8874 7.67555L1.881 7.58851L1.87844 7.5002L1.87716 7.41317L1.87844 7.32613L1.881 7.23782L1.8874 7.14951L1.89508 7.06375L1.90533 6.97672L1.91813 6.89097L1.9335 6.80394L1.95014 6.71818L1.97063 6.63371L1.9924 6.54924L2.01673 6.46476L2.04234 6.38157L2.07179 6.29838L2.10252 6.21646L2.13581 6.13583L2.17038 6.0552L2.20751 5.97584L2.24593 5.89905L2.28818 5.82097L2.33172 5.74546L2.37654 5.66995L2.42391 5.59699L2.47385 5.52532L2.52379 5.45492L2.57885 5.38453L2.63263 5.31669L2.69025 5.25014L2.74787 5.18486L2.80805 5.12087L2.86951 5.05943L2.93354 4.99928L2.99884 4.94168L3.06414 4.88409L3.13201 4.82905L3.20243 4.77658L3.27286 4.7241L3.34584 4.67547L3.41883 4.62811L3.49438 4.58203L3.56864 4.5398L3.64675 4.49884L3.72486 4.45916L3.80425 4.42205L3.88492 4.38621L3.96431 4.35421L4.04754 4.32349L4.12949 4.29534L4.21272 4.26846L4.29723 4.24414L4.38174 4.22238L4.46753 4.20318L4.55204 4.18527L4.63911 4.17119L4.72618 4.15839L4.81197 4.14687L4.89904 4.13919L4.98611 4.13279L5.07319 4.12895H5.16154H32V0H5.16154H5.05142L4.94258 0.00383969L4.83246 0.0102392L4.72362 0.0191985L4.6135 0.0281577L4.50466 0.0409567L4.3971 0.0575954L4.28826 0.0729542L4.18071 0.0934325L4.07315 0.115191L3.96687 0.140789L3.86059 0.166387L3.75559 0.194544L3.64931 0.226542L3.5456 0.258539L3.44188 0.294376L3.33944 0.331493L3.23572 0.37245L3.13585 0.413407L3.03597 0.456923L2.9361 0.50428L2.8375 0.551636L2.74019 0.602832L2.64415 0.655308L2.5494 0.709063L2.45464 0.765379L2.36245 0.824254L2.27026 0.884409L2.18063 0.947124L2.09227 1.01112L2.00392 1.07767L1.91941 1.14551L1.83362 1.2159L1.75039 1.2863L1.66972 1.35925L1.59033 1.43477L1.51222 1.51156L1.4354 1.58963L1.35985 1.66899L1.28686 1.7509L1.21516 1.83409L1.14601 1.91857L1.07815 2.00432L1.01156 2.09135L0.947541 2.18095L0.884799 2.27054L0.824617 2.36141L0.766996 2.45484L0.709375 2.54828L0.655596 2.64427L0.603097 2.74026L0.551879 2.83625L0.504502 2.93608L0.458405 3.03464L0.413589 3.13575L0.371334 3.23686L0.33292 3.33797L0.294506 3.44036L0.259934 3.54532L0.225361 3.64899L0.19463 3.75394L0.16646 3.86017L0.13957 3.9664L0.115241 4.07391L0.0934737 4.18015L0.0742667 4.28766L0.0563403 4.39645L0.0422552 4.50524L0.0294506 4.61403L0.0179265 4.72282L0.0102437 4.83289L0.00512184 4.94168L0 5.05048V5.16055V5.27062L0.00512184 5.37941Z" fill="#0DC09D"/>
</g>
</svg>
