<svg width="196" height="48" viewBox="0 0 196 48" fill="none" xmlns="http://www.w3.org/2000/svg">
<path d="M9.10379 22.9651C9.60682 15.3907 15.6913 9.3216 23.2734 8.84544V0C10.8011 0.49152 0.774824 10.4986 0.256424 22.9651H9.10379Z" fill="#3D95FD"/>
<path d="M9.10374 48.0004C9.60678 40.426 15.6913 34.3569 23.2733 33.8807V25.0353C10.801 25.5268 0.774778 35.5338 0.256378 48.0004H9.10374Z" fill="#3D95FD"/>
<path d="M39.409 0.000244141C38.9059 7.57464 32.8215 13.6438 25.2394 14.1199V22.9654C37.7117 22.4738 47.7379 12.4668 48.2563 0.000244141L39.409 0.000244141Z" fill="#3D95FD"/>
<path d="M39.409 25.0353C38.9059 32.6097 32.8215 38.6788 25.2394 39.155V48.0004C37.7117 47.5089 47.7379 37.5018 48.2563 25.0353H39.409Z" fill="#3D95FD"/>
<path d="M67.0878 34.1534L63.0001 8.79599H69.0116L72.6308 35.1787H73.5639L77.6727 13.5787C78.2007 10.8043 80.6257 8.79599 83.4519 8.79599C86.282 8.79599 88.7089 10.8101 89.2331 13.5902L93.2919 35.1768H94.2251L97.8443 8.79407H103.856L99.7681 34.1515C99.2996 37.0622 96.7863 39.203 93.8372 39.203C90.9476 39.203 88.4689 37.1467 87.9332 34.3089L83.8955 12.8798H82.9623L78.9227 34.3089C78.387 37.1486 75.9083 39.203 73.0187 39.203C70.0695 39.203 67.5563 37.0622 67.0878 34.1515V34.1534Z" fill="#160F26"/>
<path d="M144.683 34.6452L136.446 8.7962H142.809L150.454 34.77H151.387L159.033 8.7962H165.396L157.159 34.6452C156.293 37.362 153.77 39.2052 150.919 39.2052C148.068 39.2052 145.545 37.36 144.679 34.6452H144.683Z" fill="#160F26"/>
<path d="M195.897 23.3882C195.897 20.4698 195.313 17.922 194.146 15.7428C192.978 13.5636 191.352 11.8605 189.273 10.6356C187.19 9.4106 184.767 8.7962 182.006 8.7962C179.245 8.7962 176.674 9.41828 174.535 10.6644C173.463 11.2864 172.509 12.0295 171.668 12.8973C171.563 13.0048 171.459 13.1162 171.355 13.2276C171.048 13.5655 170.762 13.9188 170.489 14.2874C170.128 14.7808 169.792 15.305 169.485 15.8599C168.26 18.0775 167.646 20.6848 167.646 23.682V24.3828C167.646 27.3799 168.258 29.9853 169.485 32.2048C170.71 34.4224 172.413 36.1447 174.592 37.3696C176.77 38.5946 179.319 39.209 182.238 39.209C184.807 39.209 186.946 38.8 188.658 37.984C190.371 37.1661 191.732 36.1543 192.744 34.9485C193.024 34.6125 193.289 34.2823 193.537 33.9559C194.182 33.1092 194.716 32.2932 195.136 31.504L190.118 28.9351C189.495 30.2599 188.608 31.4272 187.462 32.4372C186.312 33.449 184.611 33.954 182.355 33.954C179.942 33.954 177.927 33.2032 176.315 31.7076C176.215 31.6135 176.117 31.5213 176.023 31.4215C175.927 31.3216 175.837 31.2237 175.746 31.1239C175.531 30.8762 175.332 30.617 175.147 30.3444C174.362 29.1655 173.913 27.762 173.799 26.1357C173.788 25.9802 173.782 25.8228 173.776 25.6653H195.899V23.3882H195.897ZM177.803 21.0535L174.729 24.1274H173.717C173.702 23.2423 173.717 22.1056 173.834 21.0535C173.892 20.6541 173.968 20.2682 174.068 19.8976C174.164 19.5271 174.281 19.1738 174.418 18.8359C174.871 17.7088 175.545 16.7546 176.432 15.9751C177.851 14.729 179.688 14.1069 181.948 14.1069C184.208 14.1069 186.034 14.729 187.435 15.9751C188.837 17.2212 189.634 18.9146 189.828 21.0535H177.805H177.803Z" fill="#160F26"/>
<path d="M132.951 19.6842C132.951 16.1668 131.878 13.45 129.728 11.5357C127.579 9.62147 124.628 8.66339 120.875 8.66339C118.413 8.66339 116.332 9.05315 114.631 9.83651C112.932 10.6199 111.563 11.6548 110.528 12.9431C109.493 14.2333 108.74 15.6407 108.27 17.1632L113.897 18.9815C114.249 17.4186 114.973 16.1476 116.067 15.1703C117.163 14.1949 118.743 13.7053 120.815 13.7053C122.887 13.7053 124.49 14.2237 125.506 15.2586C126.523 16.2935 127.03 17.6336 127.03 19.2752V24.2749H126.055L122.927 21.1511H118.237C115.07 21.1511 112.442 21.9037 110.351 23.409C108.26 24.9124 107.214 27.1319 107.214 30.0637C107.214 32.0183 107.694 33.6772 108.65 35.0461C109.608 36.4151 110.898 37.45 112.519 38.1527C114.143 38.8554 115.99 39.2087 118.058 39.2087C120.126 39.2087 121.654 38.9245 122.866 38.3581C124.077 37.7917 124.997 37.1274 125.621 36.3652C126.249 35.6029 126.713 34.9079 127.028 34.2839H127.967V39.2087H132.949V19.6861L132.951 19.6842ZM127.03 26.4253C127.03 28.8503 126.277 30.7549 124.772 32.1412C123.269 33.5274 121.326 34.2224 118.939 34.2224C117.181 34.2224 115.794 33.8327 114.777 33.0493C113.759 32.266 113.252 31.2119 113.252 29.8832C113.252 28.5546 113.742 27.5466 114.717 26.865C115.696 26.1815 116.983 25.8397 118.586 25.8397H127.028V26.4253H127.03Z" fill="#160F26"/>
</svg>
